<?xml version="1.0" encoding="UTF-8"?>
<svg id="Ebene_1" data-name="Ebene 1" xmlns="http://www.w3.org/2000/svg" viewBox="0 0 500 146">
  <defs>
    <style>
      .cls-1 {
        opacity: .8;
      }

      .cls-1, .cls-2 {
        isolation: isolate;
      }

      .cls-1, .cls-3 {
        fill: #004682;
      }

      .cls-4, .cls-2 {
        fill: #00d7a5;
      }

      .cls-2 {
        opacity: .4;
      }
    </style>
  </defs>
  <g>
    <path class="cls-4" d="M380.72,67.7h10.8v60h-10.8v-60Z"/>
    <path class="cls-4" d="M436.24,104.18v23.52h-9.92v-3.84c-2.8,2.96-6.96,4.8-12.08,4.8-8.64,0-13.68-5.12-13.68-11.84,0-7.2,5.84-11.52,14.96-11.52h9.92v-1.76c0-4.32-2.48-6.96-7.36-6.96-4.24,0-7.2,2-10.48,5.44l-5.6-6.64c4.64-5.52,10.32-8.16,17.28-8.16,10.08,0,16.96,5.68,16.96,16.96ZM425.44,112.9v-.48h-8.48c-3.52,0-5.52,1.36-5.52,4s2.32,4.32,5.68,4.32c4.56,0,8.32-3.2,8.32-7.84Z"/>
    <path class="cls-4" d="M489.28,107.94c0,11.92-8,20.72-19.2,20.72-5.44,0-10-2.16-12.72-5.84v4.88h-9.92v-60h10.8v24.24c2.8-3.04,6.88-4.72,11.84-4.72,11.2,0,19.2,8.8,19.2,20.72ZM478.32,107.86c0-6.72-4.64-10.88-10.24-10.88-5.04,0-10,3.44-10,10.96s5.04,10.88,10,10.88c5.68,0,10.24-4.24,10.24-10.96Z"/>
  </g>
  <path class="cls-3" d="M187.56,29.3c0-11.6,9.3-20.6,21.2-20.6s21.3,9.1,21.3,20.6-9.4,20.7-21.4,20.7-21.1-9.1-21.1-20.7ZM219.06,29.4c0-6.2-4.4-10.9-10.2-10.9s-10.2,4.6-10.2,10.9,4.3,10.7,10.2,10.7,10.2-4.5,10.2-10.7Z"/>
  <path class="cls-3" d="M281.06,29.3c0,11.9-8,20.8-19.2,20.8-4.9,0-9-1.8-11.8-4.8v18.2h-10.8V9.5h9.9v5c2.7-3.8,7.3-5.8,12.7-5.8,11.2,0,19.2,8.7,19.2,20.6ZM270.16,29.4c0-6.7-4.6-11-10.2-11-5,0-10,3.3-10,10.9s5,11,10,11c5.6,0,10.2-4.2,10.2-10.9Z"/>
  <path class="cls-3" d="M326.76,33h-27.7c1.3,5,5.4,7.8,11.1,7.8,4.3,0,7.8-1.5,11-4l4.5,7.4c-4.5,3.8-9.8,5.9-15.8,5.9-12.6,0-21.7-9-21.7-20.7s9-20.7,20.7-20.7,18.6,8.2,18.6,18.4c0,2.2-.4,4.5-.7,5.9ZM299.06,25.4h18c-.1-5-4-8-8.6-8s-8.2,3-9.4,8Z"/>
  <path class="cls-3" d="M373.06,24.6v24.6h-10.7v-23.2c0-4.6-3-7.7-7.4-7.7s-7.5,3.1-7.5,7.7v23.1h-10.8V9.6h9.9v3.6c2.7-2.7,6.7-4.5,11.6-4.5,9.3,0,14.9,6.4,14.9,15.9Z"/>
  <path class="cls-3" d="M229.56,88.1v35.2c0,13.4-8.6,19.8-20.5,19.8-8.6,0-15-3.4-19.4-7.4l5.7-7.5c3.9,3,7.8,5.1,12.9,5.1,6.1,0,10.6-3,10.6-9.4v-2.2c-2.9,3.1-7.1,4.7-12.1,4.7-10.9,0-19-7.9-19-19.7s8.2-19.6,19-19.6c5.8,0,10.2,2.2,13,5.8v-5h9.8v.2ZM218.96,106.7c0-7.3-5-10.2-10-10.2-5.6,0-10.2,3.8-10.2,10.3s4.7,10.6,10.2,10.6c5,0,10-3.4,10-10.7Z"/>
  <path class="cls-3" d="M239.26,67.7h10.8v60h-10.8v-60Z"/>
  <path class="cls-3" d="M295.16,104.2v23.5h-9.9v-3.8c-2.8,3-7,4.8-12.1,4.8-8.6,0-13.7-5.1-13.7-11.8,0-7.2,5.8-11.5,15-11.5h9.9v-1.8c0-4.3-2.5-7-7.4-7-4.2,0-7.2,2-10.5,5.4l-5.6-6.6c4.6-5.5,10.3-8.2,17.3-8.2,10.2.1,17,5.7,17,17ZM284.36,112.9v-.5h-8.5c-3.5,0-5.5,1.4-5.5,4s2.3,4.3,5.7,4.3c4.6.1,8.3-3.1,8.3-7.8Z"/>
  <path class="cls-3" d="M302.76,121l5.4-6.6c3.2,3.3,6.9,5.4,11.1,5.4,2.7,0,5-1,5-3.3,0-1.8-1.7-2.6-4.1-3.6l-4.2-1.8c-6.7-2.7-10.8-5.8-10.8-12.1,0-7.6,6.2-11.8,14.6-11.8,5.8,0,10.6,1.9,14.2,5.9l-5.4,6.6c-2.6-2.4-5.7-3.8-8.9-3.8-2.6,0-4.2.9-4.2,2.8,0,1.5,1.3,2.3,4.2,3.5l3.8,1.6c7.1,2.9,11.1,5.9,11.1,12.1,0,8.2-6.8,12.6-15.4,12.6-7,.2-12.8-2.9-16.4-7.5Z"/>
  <path class="cls-3" d="M339.96,121l5.4-6.6c3.2,3.3,6.9,5.4,11.1,5.4,2.7,0,5-1,5-3.3,0-1.8-1.7-2.6-4.1-3.6l-4.2-1.8c-6.7-2.7-10.8-5.8-10.8-12.1,0-7.6,6.2-11.8,14.6-11.8,5.8,0,10.6,1.9,14.2,5.9l-5.4,6.6c-2.6-2.4-5.7-3.8-8.9-3.8-2.6,0-4.2.9-4.2,2.8,0,1.5,1.3,2.3,4.2,3.5l3.8,1.6c7.1,2.9,11.1,5.9,11.1,12.1,0,8.2-6.8,12.6-15.4,12.6-7,.2-12.8-2.9-16.4-7.5Z"/>
  <path class="cls-2" d="M145.96,73v36.5h-9.8c-3.2,5.5-7.1,10.6-11.6,15.1-13.2,13.2-31.4,21.4-51.6,21.4H.06V0h73C93.16,0,111.46,8.2,124.66,21.4l-25.8,25.8c-6.6-6.6-15.8-10.7-25.8-10.7s-19.2,4.1-25.8,10.7c-6.6,6.6-10.7,15.7-10.7,25.8s4.1,19.2,10.7,25.8c6.6,6.6,15.7,10.7,25.8,10.7v-36.5h72.9Z"/>
  <path class="cls-4" d="M124.56,21.4l-25.7,25.8c-6.6-6.6-15.8-10.7-25.8-10.7s-19.2,4.1-25.8,10.7c-6.6,6.6-10.7,15.7-10.7,25.8s4.1,19.2,10.7,25.8c6.6,6.6,15.7,10.7,25.8,10.7v36.5c-20.1,0-38.4-8.2-51.6-21.4C8.26,111.4.06,93.2.06,73S8.26,34.6,21.46,21.4C34.66,8.2,52.86,0,73.06,0s38.3,8.2,51.5,21.4Z"/>
  <path class="cls-4" d="M145.96,73c0,13.3-3.6,25.7-9.8,36.5-3.2,5.5-7.1,10.6-11.6,15.1l-15.1-15.1h-36.4c10.1,0,19.2-4.1,25.8-10.7l-25.8-25.8h72.9Z"/>
  <path class="cls-1" d="M47.26,47.2c-6.6,6.6-10.7,15.7-10.7,25.8s4.1,19.2,10.7,25.8c6.6,6.6,15.7,10.7,25.8,10.7v36.5c-20.1,0-38.4-8.2-51.6-21.4C8.26,111.4.06,93.2.06,73S8.26,34.6,21.46,21.4C34.66,8.2,52.86,0,73.06,0v36.5c-10.1,0-19.2,4.1-25.8,10.7Z"/>
  <path class="cls-1" d="M145.96,73c0,13.3-3.6,25.7-9.8,36.5h-26.7l-10.6-10.7c6.6-6.6,10.7-15.7,10.7-25.8,0,0,36.4,0,36.4,0Z"/>
</svg>